<svg width="27" height="28" viewBox="0 0 27 28" fill="none" xmlns="http://www.w3.org/2000/svg">
<path d="M23.4199 15.3335C23.1266 15.3335 22.8199 15.2402 22.5266 15.1735C21.9325 15.0426 21.3488 14.8688 20.7799 14.6535C20.1613 14.4285 19.4814 14.4401 18.871 14.6863C18.2605 14.9324 17.7627 15.3957 17.4732 15.9868L17.1799 16.5868C15.8812 15.8644 14.6879 14.9671 13.6332 13.9201C12.5862 12.8655 11.689 11.6721 10.9666 10.3735L11.5266 10.0001C12.1177 9.7107 12.5809 9.21286 12.8271 8.6024C13.0732 7.99195 13.0849 7.31203 12.8599 6.69348C12.6482 6.12338 12.4745 5.53988 12.3399 4.94682C12.2732 4.65348 12.2199 4.34682 12.1799 4.04015C12.018 3.10098 11.5261 2.25047 10.7927 1.6418C10.0594 1.03313 9.13282 0.706295 8.17989 0.72015H4.17989C3.60527 0.714754 3.03622 0.833234 2.5115 1.06752C1.98678 1.30181 1.5187 1.64641 1.13913 2.07786C0.759558 2.50931 0.477403 3.01747 0.311874 3.56777C0.146346 4.11806 0.101329 4.69756 0.17989 5.26682C0.890208 10.8527 3.44126 16.0427 7.43009 20.017C11.4189 23.9913 16.6182 26.5235 22.2066 27.2135H22.7132C23.6964 27.2149 24.6458 26.8542 25.3799 26.2001C25.8017 25.8229 26.1387 25.3604 26.3685 24.8432C26.5984 24.3261 26.7158 23.7661 26.7132 23.2001V19.2001C26.6969 18.274 26.3596 17.3822 25.759 16.677C25.1584 15.9719 24.3316 15.497 23.4199 15.3335ZM24.0866 23.3335C24.0863 23.5228 24.0458 23.7099 23.9676 23.8823C23.8894 24.0547 23.7754 24.2085 23.6332 24.3335C23.4842 24.4621 23.31 24.5582 23.1218 24.6156C22.9335 24.673 22.7353 24.6905 22.5399 24.6668C17.5464 24.0266 12.9082 21.7421 9.35685 18.1739C5.80549 14.6056 3.5431 9.9566 2.92656 4.96015C2.90534 4.76484 2.92393 4.56726 2.98123 4.37934C3.03852 4.19142 3.13332 4.01707 3.25989 3.86682C3.38484 3.72459 3.53864 3.6106 3.71106 3.53244C3.88349 3.45427 4.07058 3.41372 4.25989 3.41348H8.25989C8.56995 3.40658 8.87272 3.50799 9.11608 3.70024C9.35944 3.8925 9.52817 4.16358 9.59322 4.46682C9.64656 4.83126 9.71322 5.19126 9.79322 5.54682C9.94725 6.24968 10.1522 6.94039 10.4066 7.61348L8.53989 8.48015C8.38029 8.55338 8.23672 8.65741 8.11743 8.78628C7.99815 8.91514 7.90549 9.0663 7.84479 9.23108C7.78408 9.39585 7.75652 9.57099 7.76369 9.74645C7.77086 9.9219 7.81261 10.0942 7.88656 10.2535C9.80549 14.3638 13.1096 17.6679 17.2199 19.5868C17.5445 19.7202 17.9086 19.7202 18.2332 19.5868C18.3995 19.5273 18.5523 19.4354 18.6828 19.3164C18.8133 19.1974 18.9188 19.0536 18.9932 18.8935L19.8199 17.0268C20.5092 17.2733 21.2127 17.4781 21.9266 17.6402C22.2821 17.7201 22.6421 17.7868 23.0066 17.8402C23.3098 17.9052 23.5809 18.0739 23.7731 18.3173C23.9654 18.5607 24.0668 18.8634 24.0599 19.1735L24.0866 23.3335Z" fill="#4B5563"/>
</svg>
